<svg width="475" height="405" viewBox="0 0 475 405" fill="none" xmlns="http://www.w3.org/2000/svg">
<path d="M384.5 192L415.5 337.5L155.5 330.306L201.5 402L36 327L24 186.5L42.5 186.782L384.5 192Z" fill="#014590"/>
<path d="M36 327L24 186.5L42.5 186.782L384.5 192L415.5 337.5L155.5 330.306M36 327L201.5 402L155.5 330.306M36 327L155.5 330.306" stroke="black" stroke-width="2"/>
<path d="M46 70.5L56 188L420 192V39L46 70.5Z" fill="#0E84FF" stroke="black" stroke-width="2"/>
<path d="M264.136 81.3467C271.858 242.337 155.422 185.01 186.908 85.2081L219.284 87.8813C198.492 160.654 238.294 193.921 232.056 81.3467H264.136Z" fill="white" stroke="#212121" stroke-width="2"/>
<path d="M308.095 80.4556L271.857 82.8318L272.749 176.099L300.966 174.02L308.095 80.4556Z" fill="#00FFC2"/>
<path d="M314.928 104.812V76.5942H376.116V102.436L346.71 144.911H376.116V174.02L314.928 176.099L311.363 148.475L346.71 102.436L314.928 104.812Z" fill="white"/>
<path d="M308.095 80.4556L271.857 82.8318L272.749 176.099L300.966 174.02L308.095 80.4556Z" fill="white" stroke="#212121" stroke-width="2"/>
<path d="M314.928 104.812V76.5942H376.116V102.436L346.71 144.911H376.116V174.02L314.928 176.099L311.363 148.475L346.71 102.436L314.928 104.812Z" stroke="#212121" stroke-width="2"/>
<path d="M106.71 86.693C64.4132 112.832 82.353 185.307 142.651 174.911L147.7 190.95L173.542 174.911L164.037 163.03C203.245 123.822 159.582 54.0197 106.71 86.693Z" fill="white" stroke="#212121" stroke-width="2"/>
<path d="M144.729 127.386C144.729 136.29 138.57 143.426 131.066 143.426C123.562 143.426 117.402 136.29 117.402 127.386C117.402 118.482 123.562 111.347 131.066 111.347C138.57 111.347 144.729 118.482 144.729 127.386Z" fill="#0E84FF" stroke="#212121" stroke-width="2"/>
<path d="M66.4951 239.565V238.565H65.4951H46V208.485H119.743V235.891H98.7624H97.8322L97.765 236.819L93.0756 301.591L66.4951 303.253V239.565Z" fill="white" stroke="black" stroke-width="2"/>
<path d="M152.793 301.59L126.198 303.252V211.705L160.932 210.024L152.793 301.59Z" fill="white" stroke="black" stroke-width="2"/>
<path d="M167.079 304.317V208.97H203.317L217.574 252.931L235.396 206H272.822L266.584 307.881H235.396V255.901L221.436 296.891H208.96L198.267 260.95V304.317H167.079Z" fill="white" stroke="#212121" stroke-width="2"/>
<path d="M277.871 304.317L280.247 206H343.515L341.435 233.327H312.921L310.247 242.238H332.525L330.445 265.109H310.247V274.317H338.168L336.386 304.317H277.871Z" fill="white" stroke="#212121" stroke-width="2"/>
<path d="M265.5 42L441 26" stroke="black" stroke-width="2"/>
<path d="M122 53.5L235 43" stroke="black" stroke-width="2"/>
<path d="M92 57L115.5 54.5" stroke="black" stroke-width="2"/>
<path d="M83 58L33 63L34.5 77.5" stroke="black" stroke-width="2"/>
<path d="M40 126L45.5 179" stroke="black" stroke-width="2"/>
<path d="M174 339L318 344" stroke="black" stroke-width="2"/>
<path d="M405 245L428.5 350" stroke="black" stroke-width="2"/>
<path d="M428.5 349L394.5 347.5" stroke="black" stroke-width="2"/>
<rect x="459.142" y="1.3992" width="18" height="18" transform="rotate(36.6432 459.142 1.3992)" fill="#0E84FF" stroke="black" stroke-width="2"/>
<rect x="1.98592" y="-0.745748" width="27" height="27" transform="matrix(0.910554 0.413389 0.413389 -0.910554 427.486 217.071)" fill="#212121" stroke="#0E84FF" stroke-width="3"/>
<rect x="1.98592" y="-0.745748" width="17" height="17" rx="8.5" transform="matrix(0.910554 0.413389 0.413389 -0.910554 216.486 379.071)" fill="#0E84FF" stroke="black" stroke-width="3"/>
<rect x="1.98592" y="-0.745748" width="27" height="27" rx="13.5" transform="matrix(0.910554 0.413389 0.413389 -0.910554 0.485915 53.0709)" fill="#0E84FF" stroke="black" stroke-width="3"/>
</svg>
