<svg width="21" height="22" viewBox="0 0 21 22" fill="none" xmlns="http://www.w3.org/2000/svg">
<path d="M14 3.58579L16.293 1.29279C16.4805 1.10532 16.7348 1 17 1C17.2652 1 17.5195 1.10532 17.707 1.29279L19.293 2.87879C19.4805 3.06631 19.5858 3.32062 19.5858 3.58579C19.5858 3.85095 19.4805 4.10526 19.293 4.29279L17 6.58579M14 3.58579L8.293 9.29279C8.10545 9.48028 8.00006 9.73459 8 9.99979V11.5858C8 11.851 8.10536 12.1054 8.29289 12.2929C8.48043 12.4804 8.73478 12.5858 9 12.5858H10.586C10.8512 12.5857 11.1055 12.4803 11.293 12.2928L17 6.58579M14 3.58579L17 6.58579M4 12.5858H3C2.46957 12.5858 1.96086 12.7965 1.58579 13.1716C1.21071 13.5466 1 14.0554 1 14.5858C1 15.1162 1.21071 15.6249 1.58579 16C1.96086 16.3751 2.46957 16.5858 3 16.5858H17C17.5304 16.5858 18.0391 16.7965 18.4142 17.1716C18.7893 17.5466 19 18.0554 19 18.5858C19 19.1162 18.7893 19.6249 18.4142 20C18.0391 20.3751 17.5304 20.5858 17 20.5858H13" stroke="black" stroke-width="2" stroke-linecap="round" stroke-linejoin="round"/>
</svg>
